<?xml version="1.0" encoding="UTF-8"?>
<!DOCTYPE svg PUBLIC "-//W3C//DTD SVG 1.1//EN" "http://www.w3.org/Graphics/SVG/1.1/DTD/svg11.dtd">
<!-- Creator: CorelDRAW X7 -->
<svg xmlns="http://www.w3.org/2000/svg" xml:space="preserve" width="173.882mm" height="43.3753mm" version="1.1" style="shape-rendering:geometricPrecision; text-rendering:geometricPrecision; image-rendering:optimizeQuality; fill-rule:evenodd; clip-rule:evenodd"
viewBox="0 0 17506 4367"
 xmlns:xlink="http://www.w3.org/1999/xlink">
 <defs>
  <style type="text/css">
   <![CDATA[
    .str0 {stroke:#086E56;stroke-width:20.1357}
    .fil2 {fill:#373435}
    .fil0 {fill:#AB3935}
    .fil1 {fill:#086E56}
   ]]>
  </style>
 </defs>
 <g id="Layer_x0020_1">
  <metadata id="CorelCorpID_0Corel-Layer"/>
  <path class="fil0" d="M5449 3490c0,83 111,126 205,189l489 316c42,29 80,51 122,79 280,188 225,170 404,-370l174 -531c11,-34 10,-50 34,-67 7,30 462,720 519,807 125,187 173,53 258,-94l246 -431c28,-48 95,-179 130,-218 3,40 33,114 47,154l256 760c56,169 79,349 226,229l917 -749c77,-60 32,-130 -15,-252l-887 -2443c-22,-56 -31,-132 -92,-147 -79,-20 -151,102 -198,148l-179 179c-26,26 -33,35 -56,63l-177 179c-95,95 -275,306 -355,360 -7,-28 -25,-43 -53,-76l-837 -1057c-115,-144 -163,-4 -193,86l-131 382c-212,638 -446,1283 -659,1922l-195 582z"/>
  <path class="fil0" d="M1583 3104c62,0 145,-21 205,-33 72,-14 141,-25 207,-40 -61,91 -289,219 -430,219 -135,0 -213,-2 -313,-126 -107,-134 -99,-433 -38,-590 15,-37 24,-62 44,-94 89,-149 185,-273 356,-358 191,-95 442,-176 658,-33 74,50 80,98 126,167l-612 75c-246,30 -195,18 -226,240 -10,67 -57,483 -43,520 9,25 37,53 66,53zm-1583 -394c0,334 37,558 168,839 192,415 514,667 965,774 386,92 834,22 1192,-139l146 -73c321,-165 592,-548 763,-867 160,-299 300,-702 242,-1071 -21,-133 -170,-71 -373,-48 -99,11 -192,26 -293,37l-293 36 745 -793c34,-69 -18,-106 -60,-139l-116 -104c-432,-351 -1035,-542 -1593,-354 -361,121 -558,254 -832,495 -27,24 -43,31 -68,60 -115,132 -223,256 -315,409 -147,245 -278,605 -278,938z"/>
  <g id="_2146071220720">
   <circle class="fil1 str0" cx="15186" cy="797" r="487"/>
   <path class="fil1" d="M13509 1538c0,95 30,94 121,227 43,63 86,117 130,181l641 897c24,33 41,57 65,90 30,41 41,46 41,114 -1,124 -9,969 0,1081 9,127 115,101 325,132 97,14 178,23 275,37 96,14 178,22 274,36 50,7 88,11 137,18 119,18 222,47 225,-85 1,-61 -1,-123 -1,-184 0,-131 9,-233 9,-357 0,-122 0,-244 0,-366 0,-273 -18,-153 241,-501l967 -1257c46,-84 -45,-124 -146,-191 -38,-25 -70,-50 -108,-76 -181,-121 -562,-374 -712,-487 -119,-89 -155,13 -286,208l-359 516c-148,181 -244,219 -355,45 -117,-185 -240,-393 -353,-560 -79,-118 -124,-241 -207,-241 -52,0 -403,299 -473,350l-344 269c-38,31 -107,74 -107,104z"/>
   <g>
    <path class="fil2" d="M17379 1006l-58 -40 173 -252c22,-32 14,-75 -18,-98l-117 -79c-32,-23 -75,-15 -98,18l-452 658c-22,32 -14,76 18,98l116 80c32,22 76,14 98,-19l173 -251 58 40c11,7 26,4 33,-6l80 -116c7,-11 4,-26 -6,-33z"/>
    <path class="fil2" d="M16714 92l-116 -80c-32,-22 -76,-14 -98,19l-173 251 -58 -40c-11,-7 -26,-4 -33,6l-80 116c-7,11 -5,26 6,33l58 40 -173 252c-22,32 -14,76 18,98l116 80c32,22 76,14 98,-19l453 -658c22,-32 14,-75 -18,-98z"/>
    <rect class="fil2" transform="matrix(0.0965031 0.0663877 -0.0503823 0.0732373 16617.9 482.586)" width="4228" height="2114"/>
   </g>
   <g>
    <path class="fil2" d="M13038 1064l56 -43 -187 -241c-24,-31 -19,-75 12,-99l112 -86c31,-24 75,-19 99,12l489 631c24,31 19,75 -12,99l-111 86c-31,24 -75,19 -99,-12l-188 -241 -55 43c-11,8 -25,6 -33,-4l-87 -112c-8,-10 -6,-25 4,-33z"/>
    <path class="fil2" d="M13650 114l111 -86c31,-24 75,-19 99,12l187 241 56 -43c10,-8 25,-6 33,4l86 112c8,10 6,25 -4,33l-56 43 188 241c24,31 18,75 -13,99l-111 86c-31,24 -75,19 -99,-12l-490 -631c-24,-31 -18,-75 13,-99z"/>
    <rect class="fil2" transform="matrix(-0.0925306 0.0718209 0.0545057 0.0702226 13767.9 498.103)" width="4228" height="2114"/>
   </g>
  </g>
  <path class="fil0" d="M9661 3502c0,83 111,126 205,189l489 316c43,29 80,50 123,79 280,188 224,170 404,-370l174 -531c11,-34 10,-50 33,-67 8,29 463,720 520,807 124,187 173,53 258,-94l245 -431c29,-48 96,-179 130,-218 4,40 34,114 47,154l256 760c57,169 79,349 227,229l917 -749c76,-60 32,-130 -15,-252l-888 -2443c-22,-56 -31,-132 -91,-147 -80,-20 -152,102 -199,148l-178 179c-27,26 -33,35 -56,63l-178 179c-94,95 -275,306 -354,359 -8,-27 -26,-42 -53,-75l-838 -1057c-114,-144 -163,-4 -193,86l-130 382c-213,638 -446,1283 -659,1922l-196 582z"/>
  <path class="fil0" d="M3860 4341c96,0 700,-70 828,-88 61,-8 228,-19 267,-36 61,-27 60,-154 59,-243 -1,-62 9,-83 9,-137 1,-62 5,-98 9,-147 8,-98 6,-194 9,-293l32 -582c7,-50 3,-89 5,-142 1,-51 10,-82 9,-146l18 -284c8,-102 2,-200 10,-301l18 -285c0,-60 5,-91 9,-138l28 -586c-6,-144 -151,-82 -340,-64 -93,8 -177,18 -271,31 -177,23 -363,40 -549,65 -109,15 -173,4 -178,124 -4,96 1,205 1,303l-10 906c0,111 -9,187 -9,293 0,164 17,464 -5,609 -21,139 -4,443 -4,600 0,117 -17,338 -9,449 3,39 26,92 64,92z"/>
 </g>
</svg>
