<?xml version="1.0" encoding="UTF-8"?>
<!DOCTYPE svg PUBLIC "-//W3C//DTD SVG 1.1//EN" "http://www.w3.org/Graphics/SVG/1.1/DTD/svg11.dtd">
<!-- Creator: CorelDRAW X7 -->
<svg xmlns="http://www.w3.org/2000/svg" xml:space="preserve" width="111.255mm" height="43.3753mm" version="1.1" style="shape-rendering:geometricPrecision; text-rendering:geometricPrecision; image-rendering:optimizeQuality; fill-rule:evenodd; clip-rule:evenodd"
viewBox="0 0 7167 2794"
 xmlns:xlink="http://www.w3.org/1999/xlink">
 <defs>
  <style type="text/css">
   <![CDATA[
    .str0 {stroke:#086E56;stroke-width:12.8834}
    .fil2 {fill:#373435}
    .fil1 {fill:#AB3935}
    .fil0 {fill:#086E56}
   ]]>
  </style>
 </defs>
 <g id="Layer_x0020_1">
  <metadata id="CorelCorpID_0Corel-Layer"/>
  <circle class="fil0 str0" cx="3448" cy="510" r="312"/>
  <path class="fil0" d="M2375 984c0,61 19,60 77,145 28,41 55,75 83,116l410 574c16,21 27,36 42,57 20,27 27,30 26,74 0,79 -5,619 0,691 6,81 74,65 208,85 62,9 114,14 176,23 62,9 114,15 176,23 32,5 56,7 87,12 76,11 142,30 144,-55 1,-38 0,-78 0,-117 0,-84 5,-149 5,-229 0,-78 0,-156 0,-234 0,-174 -12,-98 154,-320l619 -804c29,-54 -29,-80 -93,-123 -24,-16 -45,-32 -69,-48 -116,-78 -360,-240 -456,-312 -76,-57 -99,8 -183,133l-230 330c-94,116 -155,140 -227,29 -75,-118 -153,-251 -225,-358 -51,-76 -80,-155 -133,-155 -33,0 -258,191 -303,224l-220 173c-24,19 -68,47 -68,66z"/>
  <path class="fil1" d="M4563 2243c0,53 72,80 132,120l312 203c28,18 52,32 79,50 179,120 143,109 259,-237l111 -339c7,-22 6,-32 21,-43 5,19 296,461 333,516 79,120 110,34 164,-60l158 -276c18,-30 61,-114 83,-139 2,25 21,73 30,99l164 485c36,109 50,224 145,147l586 -479c49,-38 21,-83 -9,-161l-568 -1564c-14,-35 -20,-84 -59,-94 -51,-12 -96,66 -127,95l-114 115c-17,16 -21,22 -36,40l-113 115c-61,60 -176,196 -227,230 -5,-18 -16,-27 -34,-49l-536 -676c-73,-92 -104,-2 -123,55l-84 244c-136,409 -285,821 -421,1230l-126 373z"/>
  <path class="fil1" d="M1013 1988c39,0 93,-13 131,-21 46,-9 90,-16 133,-26 -39,58 -185,141 -276,141 -86,0 -136,-2 -200,-81 -68,-86 -63,-278 -24,-378 9,-23 15,-40 28,-60 57,-95 118,-175 227,-229 123,-61 283,-113 422,-21 47,32 51,63 80,107l-391 48c-158,19 -125,11 -145,153 -6,43 -36,309 -27,333 6,16 23,34 42,34zm-1013 -252c0,213 24,357 107,537 123,265 329,426 618,495 247,59 534,14 762,-89l94 -47c205,-105 379,-350 488,-554 103,-192 192,-449 155,-686 -14,-85 -109,-45 -239,-31 -63,7 -122,17 -187,24l-188 23 477 -507c22,-44 -12,-68 -38,-89l-75 -66c-276,-225 -661,-347 -1019,-227 -231,78 -356,162 -532,317 -17,15 -28,19 -44,38 -73,84 -143,164 -201,261 -94,158 -178,388 -178,601z"/>
  <g id="_2146074303712">
   <path class="fil2" d="M4851 644l-37 -26 110 -161c14,-20 9,-48 -11,-63l-75 -51c-20,-14 -48,-9 -62,12l-290 421c-14,21 -9,48 12,63l74 51c21,14 48,9 63,-12l110 -161 38 26c6,4 16,3 20,-4l52 -74c4,-7 3,-17 -4,-21z"/>
   <path class="fil2" d="M4425 59l-74 -51c-21,-14 -49,-9 -63,12l-110 161 -38 -26c-6,-5 -16,-3 -21,4l-51 74c-4,7 -3,16 4,21l37 26 -110 161c-15,20 -9,48 11,62l75 51c20,15 48,9 62,-11l290 -421c14,-21 9,-49 -12,-63z"/>
   <rect class="fil2" transform="matrix(0.0965031 0.0663877 -0.0503823 0.0732373 4363.91 308.773)" width="2706" height="1353"/>
  </g>
  <g id="_2146074304832">
   <path class="fil2" d="M2074 681l35 -28 -120 -154c-15,-20 -11,-48 8,-63l72 -56c19,-15 48,-11 63,8l313 404c16,20 12,48 -8,63l-71 56c-20,15 -48,11 -63,-8l-120 -155 -36 28c-6,5 -16,4 -21,-3l-55 -71c-5,-6 -4,-16 3,-21z"/>
   <path class="fil2" d="M2465 73l71 -55c20,-16 48,-12 63,8l120 154 36 -28c6,-5 16,-4 21,3l55 71c5,7 4,16 -3,21l-35 28 120 154c15,20 11,48 -8,64l-72 55c-19,15 -48,12 -63,-8l-313 -404c-16,-19 -12,-48 8,-63z"/>
   <rect class="fil2" transform="matrix(-0.0925306 0.0718209 0.0545057 0.0702226 2540.41 318.701)" width="2706" height="1353"/>
  </g>
 </g>
</svg>
